<svg width="64" height="70" viewBox="0 0 64 70" fill="none" xmlns="http://www.w3.org/2000/svg">
<path d="M54.9509 0C55.7375 0.326116 56.5855 0.261992 57.4023 0.392988C59.425 0.717502 61.4098 1.19042 63.3543 1.84196C63.9753 2.05014 64.1762 2.55168 63.8347 2.96344C63.6144 3.22933 63.3105 3.17368 63.0285 3.18307C60.2422 3.27582 57.5009 3.66675 54.8148 4.44585C47.9642 6.43255 42.192 10.2154 37.3873 15.5503C31.2454 22.3701 27.6817 30.4797 26.1083 39.567C25.3981 43.6682 25.2148 47.7982 25.3424 51.9512C25.3456 52.0549 25.3563 52.1587 25.3646 52.2787C25.6562 52.2189 25.7659 52.0036 25.9159 51.8513C27.147 50.5998 28.3602 49.3294 29.6002 48.0873C31.3824 46.3021 34.0145 46.2762 35.6945 48.006C37.3862 49.7474 37.35 52.4264 35.5788 54.2468C30.9163 59.0387 26.2475 63.8242 21.5702 68.6007C19.7291 70.481 17.1882 70.4615 15.3405 68.5714C10.6829 63.8068 6.02891 59.0385 1.38003 54.2649C-0.403499 52.4335 -0.461154 49.7794 1.22382 48.0268C2.9193 46.2634 5.57079 46.2968 7.36527 48.112C8.5519 49.3123 9.72892 50.5226 10.9111 51.7277C10.9249 51.7419 10.9491 51.7455 11.08 51.8032C11.1638 50.7942 11.2501 49.8211 11.325 48.8469C11.9156 41.1671 13.1413 33.6321 16.1171 26.4878C19.6406 18.0282 24.8631 10.9918 32.4888 5.97842C37.4919 2.68931 42.9683 0.770633 48.882 0.156875C49.0418 0.140386 49.2499 0.228098 49.3475 0H49.8812C50.0146 0.102369 50.148 0.102369 50.2814 0H50.9485C51.3487 0.109927 51.749 0.109927 52.1492 0H52.5494C52.8607 0.112446 53.172 0.112446 53.4833 0H54.017C54.1948 0.10924 54.3727 0.10924 54.5506 0H54.9509Z" fill="#21B11E"/>
</svg>
